# xmcd
#
# Track frame offsets:
#  150
#  15926
#  31260
#  49807
#  65227
#  82702
#  100969
#  122514
#  137120
#  149303
#  169433
#
# Disc length: 2492 seconds
#
# Revision: 0
# Processed by: cddbd v1.5.1PL2 Copyright (c) Steve Scherf et al.
# Submitted via: Collectorz.com_Music_Collector 6.11
#
DISCID=9009ba0b
DTITLE=Jonah's Road - Hold On
DYEAR=2005
DGENRE=
TTITLE0=Forever's A LOng Time
TTITLE1=Missing You
TTITLE2=Getting By Without You
TTITLE3=Forever MOre
TTITLE4=LOng Way Home
TTITLE5=Back To THe Road
TTITLE6=Hold On
TTITLE7=Walk On Water
TTITLE8=Glad Ya MIne
TTITLE9=Too MOdern
TTITLE10=Long way Home -Accoustic
EXTD=
EXTT0=
EXTT1=
EXTT2=
EXTT3=
EXTT4=
EXTT5=
EXTT6=
EXTT7=
EXTT8=
EXTT9=
EXTT10=
PLAYORDER=
